<svg xmlns="http://www.w3.org/2000/svg" viewBox="0 0 64 64" fill="none">
  <rect width="64" height="64" rx="12" fill="#0f172a"/>
  <rect x="4" y="4" width="56" height="56" rx="8" fill="#1e293b" stroke="#3b82f6" stroke-width="1.5"/>
  <rect x="14" y="2" width="3" height="5" rx="1" fill="#3b82f6"/>
  <rect x="22" y="2" width="3" height="5" rx="1" fill="#3b82f6"/>
  <rect x="30" y="2" width="3" height="5" rx="1" fill="#3b82f6"/>
  <rect x="39" y="2" width="3" height="5" rx="1" fill="#3b82f6"/>
  <rect x="47" y="2" width="3" height="5" rx="1" fill="#3b82f6"/>
  <rect x="14" y="57" width="3" height="5" rx="1" fill="#3b82f6"/>
  <rect x="22" y="57" width="3" height="5" rx="1" fill="#3b82f6"/>
  <rect x="30" y="57" width="3" height="5" rx="1" fill="#3b82f6"/>
  <rect x="39" y="57" width="3" height="5" rx="1" fill="#3b82f6"/>
  <rect x="47" y="57" width="3" height="5" rx="1" fill="#3b82f6"/>
  <rect x="12" y="12" width="40" height="40" rx="4" fill="#1e40af"/>
  <rect x="16" y="16" width="32" height="32" rx="2" fill="#2563eb"/>
  <line x1="20" y1="24" x2="28" y2="24" stroke="#93c5fd" stroke-width="1.5"/>
  <line x1="28" y1="24" x2="28" y2="36" stroke="#93c5fd" stroke-width="1.5"/>
  <line x1="28" y1="36" x2="44" y2="36" stroke="#93c5fd" stroke-width="1.5"/>
  <line x1="36" y1="20" x2="44" y2="20" stroke="#93c5fd" stroke-width="1.5"/>
  <line x1="44" y1="20" x2="44" y2="36" stroke="#93c5fd" stroke-width="1.5"/>
  <line x1="20" y1="32" x2="32" y2="32" stroke="#93c5fd" stroke-width="1.5"/>
  <line x1="32" y1="32" x2="32" y2="44" stroke="#93c5fd" stroke-width="1.5"/>
  <circle cx="20" cy="24" r="2" fill="#60a5fa"/>
  <circle cx="44" cy="20" r="2" fill="#60a5fa"/>
  <circle cx="44" cy="36" r="2" fill="#60a5fa"/>
  <circle cx="32" cy="44" r="2" fill="#60a5fa"/>
  <circle cx="20" cy="32" r="2" fill="#60a5fa"/>
</svg>
